REM DIRINDEX 1\2,1\4,1\5,1\6,1\7,1\3\8,1\3\9,1\3\10
REM DIRNAME cjc113,folder01,folder02,folder03,folder04,folder05,folder06,folder07,folder08,folder09
TITLE ""
FILE "DB4500_5th_5C_02.mp3" MP3
  TRACK 01 AUDIO
    TITLE "8:cjc113_3453"
    INDEX 01 00:00:00
  TRACK 02 AUDIO
    TITLE "0:"
    INDEX 01 00:01:03
  TRACK 03 AUDIO
    TITLE "9:cjc113_3454"
    INDEX 01 00:01:13
  TRACK 04 AUDIO
    TITLE "0:"
    INDEX 01 00:02:59
  TRACK 05 AUDIO
    TITLE "10:cjc113_3455"
    INDEX 01 00:02:69
  TRACK 06 AUDIO
    TITLE "0:"
    INDEX 01 00:06:04
  TRACK 07 AUDIO
    TITLE "8:cjc113_3456"
    INDEX 01 00:06:33
  TRACK 08 AUDIO
    TITLE "0:"
    INDEX 01 00:07:47
  TRACK 09 AUDIO
    TITLE "9:cjc113_3457"
    INDEX 01 00:07:58
  TRACK 10 AUDIO
    TITLE "0:"
    INDEX 01 00:09:18
  TRACK 11 AUDIO
    TITLE "10:cjc113_3458"
    INDEX 01 00:09:26
  TRACK 12 AUDIO
    TITLE "0:"
    INDEX 01 00:13:10
  TRACK 13 AUDIO
    TITLE "8:cjc113_3459"
    INDEX 01 00:13:37
  TRACK 14 AUDIO
    TITLE "0:"
    INDEX 01 00:14:64
  TRACK 15 AUDIO
    TITLE "9:cjc113_3460"
    INDEX 01 00:14:74
  TRACK 16 AUDIO
    TITLE "0:"
    INDEX 01 00:16:02
  TRACK 17 AUDIO
    TITLE "10:cjc113_3461"
    INDEX 01 00:16:10
  TRACK 18 AUDIO
    TITLE "0:"
    INDEX 01 00:19:40
  TRACK 19 AUDIO
    TITLE "8:cjc113_3462"
    INDEX 01 00:19:73
  TRACK 20 AUDIO
    TITLE "0:"
    INDEX 01 00:21:02
  TRACK 21 AUDIO
    TITLE "9:cjc113_3463"
    INDEX 01 00:21:09
  TRACK 22 AUDIO
    TITLE "0:"
    INDEX 01 00:22:19
  TRACK 23 AUDIO
    TITLE "10:cjc113_3464"
    INDEX 01 00:22:29
  TRACK 24 AUDIO
    TITLE "0:"
    INDEX 01 00:24:59
  TRACK 25 AUDIO
    TITLE "8:cjc113_3465"
    INDEX 01 00:25:15
  TRACK 26 AUDIO
    TITLE "0:"
    INDEX 01 00:26:38
  TRACK 27 AUDIO
    TITLE "9:cjc113_3466"
    INDEX 01 00:26:44
  TRACK 28 AUDIO
    TITLE "0:"
    INDEX 01 00:27:61
  TRACK 29 AUDIO
    TITLE "10:cjc113_3467"
    INDEX 01 00:27:69
  TRACK 30 AUDIO
    TITLE "0:"
    INDEX 01 00:31:10
  TRACK 31 AUDIO
    TITLE "8:cjc113_3468"
    INDEX 01 00:31:41
  TRACK 32 AUDIO
    TITLE "0:"
    INDEX 01 00:32:54
  TRACK 33 AUDIO
    TITLE "9:cjc113_3469"
    INDEX 01 00:32:64
  TRACK 34 AUDIO
    TITLE "0:"
    INDEX 01 00:33:71
  TRACK 35 AUDIO
    TITLE "10:cjc113_3470"
    INDEX 01 00:34:02
  TRACK 36 AUDIO
    TITLE "0:"
    INDEX 01 00:36:72
  TRACK 37 AUDIO
    TITLE "8:cjc113_3471"
    INDEX 01 00:37:30
  TRACK 38 AUDIO
    TITLE "0:"
    INDEX 01 00:38:35
  TRACK 39 AUDIO
    TITLE "9:cjc113_3472"
    INDEX 01 00:38:43
  TRACK 40 AUDIO
    TITLE "0:"
    INDEX 01 00:39:56
  TRACK 41 AUDIO
    TITLE "10:cjc113_3473"
    INDEX 01 00:39:64
  TRACK 42 AUDIO
    TITLE "0:"
    INDEX 01 00:42:37
  TRACK 43 AUDIO
    TITLE "8:cjc113_3474"
    INDEX 01 00:42:70
  TRACK 44 AUDIO
    TITLE "0:"
    INDEX 01 00:44:07
  TRACK 45 AUDIO
    TITLE "9:cjc113_3475"
    INDEX 01 00:44:14
  TRACK 46 AUDIO
    TITLE "0:"
    INDEX 01 00:46:47
  TRACK 47 AUDIO
    TITLE "10:cjc113_3476"
    INDEX 01 00:46:56
  TRACK 48 AUDIO
    TITLE "0:"
    INDEX 01 00:50:23
  TRACK 49 AUDIO
    TITLE "8:cjc113_3477"
    INDEX 01 00:50:52
  TRACK 50 AUDIO
    TITLE "0:"
    INDEX 01 00:51:67
  TRACK 51 AUDIO
    TITLE "9:cjc113_3478"
    INDEX 01 00:52:00
  TRACK 52 AUDIO
    TITLE "0:"
    INDEX 01 00:52:65
  TRACK 53 AUDIO
    TITLE "10:cjc113_3479"
    INDEX 01 00:52:71
  TRACK 54 AUDIO
    TITLE "0:"
    INDEX 01 00:57:46
  TRACK 55 AUDIO
    TITLE "8:cjc113_3480"
    INDEX 01 00:58:03
  TRACK 56 AUDIO
    TITLE "0:"
    INDEX 01 00:59:02
  TRACK 57 AUDIO
    TITLE "9:cjc113_3481"
    INDEX 01 00:59:10
  TRACK 58 AUDIO
    TITLE "0:"
    INDEX 01 00:59:73
  TRACK 59 AUDIO
    TITLE "10:cjc113_3482"
    INDEX 01 01:00:04
  TRACK 60 AUDIO
    TITLE "0:"
    INDEX 01 01:02:61
  TRACK 61 AUDIO
    TITLE "8:cjc113_3483"
    INDEX 01 01:03:20
  TRACK 62 AUDIO
    TITLE "0:"
    INDEX 01 01:04:21
  TRACK 63 AUDIO
    TITLE "9:cjc113_3484"
    INDEX 01 01:04:29
  TRACK 64 AUDIO
    TITLE "0:"
    INDEX 01 01:05:38
  TRACK 65 AUDIO
    TITLE "10:cjc113_3485"
    INDEX 01 01:05:46
  TRACK 66 AUDIO
    TITLE "0:"
    INDEX 01 01:10:04
